<?xml version="1.0" encoding="UTF-8"?>
<svg width="41px" height="41px" viewBox="0 0 41 41" version="1.1" xmlns="http://www.w3.org/2000/svg" xmlns:xlink="http://www.w3.org/1999/xlink">
    <!-- Generator: Sketch 46.2 (44496) - http://www.bohemiancoding.com/sketch -->
    <title>Page 1</title>
    <desc>Created with Sketch.</desc>
    <defs></defs>
    <g id="Page-1" stroke="none" stroke-width="1" fill="none" fill-rule="evenodd">
        <g id="My-Profile" transform="translate(-86.000000, -620.000000)">
            <g id="Page-1" transform="translate(86.000000, 620.000000)">
                <path d="M40,28.5 C40,34.8518333 34.8518333,40 28.5,40 C22.1481667,40 17,34.8518333 17,28.5 C17,22.1481667 22.1481667,17 28.5,17 C34.8518333,17 40,22.1481667 40,28.5 Z" id="Stroke-1" stroke="#3B7CFF" fill-opacity="0.568557518" fill="#A0BFFF"></path>
                <polyline id="Stroke-3" stroke="#000000" points="33 29 28 29 28 22"></polyline>
                <path d="M0,40 L15,40" id="Stroke-5" stroke="#3B7CFF"></path>
                <path d="M13,34 L0,34" id="Stroke-7" stroke="#3B7CFF" stroke-width="2"></path>
                <path d="M1,3 L1,35" id="Stroke-9" stroke="#3B7CFF" stroke-width="2"></path>
                <path d="M39,4 L1,4" id="Stroke-11" stroke="#3B7CFF" stroke-width="2"></path>
                <path d="M40,16 L40,3" id="Stroke-13" stroke="#3B7CFF" stroke-width="2"></path>
                <path d="M5,4 L5,0" id="Stroke-15" stroke="#3B7CFF" stroke-width="2"></path>
                <path d="M13,4 L13,0" id="Stroke-17" stroke="#3B7CFF" stroke-width="2"></path>
                <path d="M21,4 L21,0" id="Stroke-19" stroke="#3B7CFF" stroke-width="2"></path>
                <path d="M28,4 L28,0" id="Stroke-21" stroke="#3B7CFF" stroke-width="2"></path>
                <path d="M36,4 L36,0" id="Stroke-23" stroke="#3B7CFF" stroke-width="2"></path>
                <path d="M6,31 L6,28" id="Stroke-25" stroke="#A0BFFF" stroke-width="2"></path>
                <path d="M12,21 L12,18" id="Stroke-27" stroke="#A0BFFF" stroke-width="2"></path>
                <path d="M6,21 L6,18" id="Stroke-29" stroke="#A0BFFF" stroke-width="2"></path>
                <path d="M12,16 L12,13" id="Stroke-31" stroke="#A0BFFF" stroke-width="2"></path>
                <path d="M17,11 L17,8" id="Stroke-33" stroke="#A0BFFF" stroke-width="2"></path>
                <path d="M22,11 L22,8" id="Stroke-35" stroke="#A0BFFF" stroke-width="2"></path>
                <path d="M12,23 L12,26" id="Stroke-37" stroke="#A0BFFF" stroke-width="2"></path>
            </g>
        </g>
    </g>
</svg>