<?xml version="1.0" encoding="UTF-8"?>
<svg width="42px" height="48px" viewBox="0 0 42 48" version="1.1" xmlns="http://www.w3.org/2000/svg" xmlns:xlink="http://www.w3.org/1999/xlink">
    <!-- Generator: Sketch 46.2 (44496) - http://www.bohemiancoding.com/sketch -->
    <title>Group</title>
    <desc>Created with Sketch.</desc>
    <defs></defs>
    <g id="Page-1" stroke="none" stroke-width="1" fill="none" fill-rule="evenodd">
        <g id="My-Profile" transform="translate(-85.000000, -155.000000)">
            <g id="Group" transform="translate(86.000000, 156.000000)">
                <g id="Page-1">
                    <path d="M36.0319002,31.9739235 C34.2648013,28.0810495 28.0539851,25 20.6983209,25 C12.5849522,25 5.83047522,28.613202 4.92122974,33.116256 C9.0167539,37.6205675 14.0826419,39.9206289 20.1188937,40.0164401 C26.1551456,40.1122514 31.459481,37.4314125 36.0319002,31.9739235 Z" id="Stroke-5" stroke="#000000" fill-opacity="0.59728827" fill="#A0BFFF"></path>
                    <path d="M40,20 C40,31.045 31.045,40 20,40 C8.955,40 0,31.045 0,20 C0,8.95375 8.955,0 20,0 C31.045,0 40,8.95375 40,20 Z" id="Stroke-1" stroke="#3B7CFF" stroke-width="2" stroke-linecap="round"></path>
                    <path d="M28,13 C28,17.417892 24.4181692,21 20.0006191,21 C15.5818308,21 12,17.417892 12,13 C12,8.58086983 15.5818308,5 20.0006191,5 C24.4181692,5 28,8.58086983 28,13 Z" id="Stroke-3" stroke="#000000" fill="#FFFFFF" stroke-linecap="round"></path>
                </g>
                <path d="M6.57692308,46 L20.4230769,46" id="Line" stroke="#3B7CFF" stroke-width="2" stroke-linecap="round"></path>
                <path d="M27,46 L33.4166667,46" id="Line" stroke="#3B7CFF" stroke-width="2" stroke-linecap="round"></path>
            </g>
        </g>
    </g>
</svg>