<?xml version="1.0" encoding="UTF-8"?>
<svg width="50px" height="58px" viewBox="0 0 50 58" version="1.1" xmlns="http://www.w3.org/2000/svg" xmlns:xlink="http://www.w3.org/1999/xlink">
    <!-- Generator: Sketch 46.2 (44496) - http://www.bohemiancoding.com/sketch -->
    <title>Group 3</title>
    <desc>Created with Sketch.</desc>
    <defs></defs>
    <g id="Page-1" stroke="none" stroke-width="1" fill="none" fill-rule="evenodd">
        <g id="My-Profile" transform="translate(-82.000000, -927.000000)">
            <g id="Group-3" transform="translate(83.000000, 928.000000)">
                <path d="M45.249219,35.1670814 C47.0058138,31.8314441 48,28.0318244 48,24 C48,10.745166 37.254834,0 24,0 C10.745166,0 0,10.745166 0,24 C0,27.5837989 0.785510156,30.9841321 2.19375166,34.0382207" id="Oval-3" stroke="#000000" stroke-dasharray="2"></path>
                <g id="Page-1" transform="translate(4.000000, 17.000000)" stroke="#3B7CFF" stroke-width="2">
                    <path d="M17,31 L17,40" id="Stroke-1"></path>
                    <path d="M22,31 L22,40" id="Stroke-3"></path>
                    <path d="M30,3 C30,1.896 31.12,1 32.5,1 C33.88,1 35,1.896 35,3" id="Stroke-5"></path>
                    <path d="M30,4 L30,8" id="Stroke-7"></path>
                    <path d="M35,4 L35,8" id="Stroke-9"></path>
                    <polyline id="Stroke-15" points="31 40 31 38.75 29.6666667 31.25 27 31.25 28.3333333 25"></polyline>
                    <path d="M34,40 L34,38.7391304 L35.25,31.173913 L37.75,31.173913 L36.5,24.8695652 L37.75,24.8695652 L39,23.6086957 L39,22.3478261 L37.75,13.5217391 C37.75,12.1284783 36.63125,11 35.25,11" id="Stroke-17"></path>
                    <path d="M30,10.3225806 C28.5586957,10.3225806 27.3913043,11.4774194 27.3913043,12.9032258 L26.0869565,21.9354839 L26.0869565,23.2258065 L24.7826087,24.516129 L23.4782609,24.5174194 L23.4782609,21.9354839 L20.8695652,20.6451613 L20.8695652,19.3548387 L22.173913,18.0645161 L22.173913,15.483871 L20.8695652,14.1935484 L18.2608696,14.1935484 L16.9565217,15.483871 L16.9565217,18.0645161 L18.2595652,19.3548387 L18.2608696,20.6451613 L15.6521739,21.9354839 L15.6521739,24.516129 L13.7413043,24.516129 L13.0434783,23.2258065 L13.0434783,10.3225806 L9.13043478,7.74193548 L9.13043478,6.4516129 L10.4347826,5.16129032 L10.4347826,1.29032258 L9.13043478,0 L3.91304348,0 L2.60869565,1.29032258 L2.60869565,5.16129032 L3.91304348,6.4516129 L3.91304348,7.74193548 L0,10.3225806 L0,23.2258065 L2.60869565,25.8064516 L2.60869565,40" id="Stroke-19"></path>
                    <path d="M11,28 L11,40" id="Stroke-21"></path>
                </g>
            </g>
        </g>
    </g>
</svg>