<?xml version="1.0" encoding="UTF-8"?>
<svg width="35px" height="47px" viewBox="0 0 35 47" version="1.1" xmlns="http://www.w3.org/2000/svg" xmlns:xlink="http://www.w3.org/1999/xlink">
    <!-- Generator: Sketch 46.2 (44496) - http://www.bohemiancoding.com/sketch -->
    <title>Page 1</title>
    <desc>Created with Sketch.</desc>
    <defs></defs>
    <g id="Page-1" stroke="none" stroke-width="1" fill="none" fill-rule="evenodd">
        <g id="My-Profile" transform="translate(-91.000000, -766.000000)" stroke-width="2">
            <g id="Page-1" transform="translate(92.000000, 767.000000)">
                <polygon id="Stroke-1" stroke="#3B7CFF" fill-opacity="0.371235281" fill="#A0BFFF" points="0 45 33 45 33 0 0 0"></polygon>
                <path d="M27,16.5 C27,22.299 22.299,27 16.5,27 C10.701,27 6,22.299 6,16.5 C6,10.701 10.701,6 16.5,6 C22.299,6 27,10.701 27,16.5 Z" id="Stroke-3" stroke="#3B7CFF" fill="#FFFFFF"></path>
                <path d="M12,16.5 C12,22.299 14.0145,27 16.5,27 C18.9855,27 21,22.299 21,16.5 C21,10.701 18.9855,6 16.5,6 C14.0145,6 12,10.701 12,16.5 Z" id="Stroke-4" stroke="#3B7CFF"></path>
                <path d="M27,17 L6,17" id="Stroke-5" stroke="#3B7CFF"></path>
                <path d="M10,33 L22,33" id="Stroke-6" stroke="#000000"></path>
                <path d="M13,39 L19,39" id="Stroke-7" stroke="#000000"></path>
            </g>
        </g>
    </g>
</svg>