<?xml version="1.0" encoding="UTF-8"?>
<svg width="40px" height="48px" viewBox="0 0 40 48" version="1.1" xmlns="http://www.w3.org/2000/svg" xmlns:xlink="http://www.w3.org/1999/xlink">
    <!-- Generator: Sketch 46.2 (44496) - http://www.bohemiancoding.com/sketch -->
    <title>Page 1</title>
    <desc>Created with Sketch.</desc>
    <defs></defs>
    <g id="Page-1" stroke="none" stroke-width="1" fill="none" fill-rule="evenodd" stroke-linecap="round" stroke-linejoin="round">
        <g id="My-Profile" transform="translate(-85.000000, -466.000000)">
            <g id="Page-1" transform="translate(86.000000, 467.000000)">
                <path d="M30.9502963,27 L38,41.6863205 L29.5555556,39.6512267 C29.5133333,39.6512267 29.4739259,39.6735577 29.4485926,39.7092872 L25.1954074,45.9411106 C25.1362963,46.0274569 25.0096296,46.0170358 24.9631852,45.9217571 L19,33.498306" id="Stroke-1" stroke="#3B7CFF" fill-opacity="0.532155797" fill="#A0BFFF"></path>
                <path d="M6.35430329,27.8750966 L0,40.8406302 L8.44444444,38.8767279 C8.48666667,38.8767279 8.52748148,38.8982619 8.55140741,38.9341519 L12.8045926,44.9421426 C12.8651111,45.026843 12.9903704,45.0167938 13.0368148,44.9234797 L19,32.9448242" id="Stroke-7" stroke="#3B7CFF" fill-opacity="0.532155797" fill="#A0BFFF"></path>
                <path d="M35,16.5 C35,25.6123043 27.6137391,33 18.5,33 C9.38769565,33 2,25.6123043 2,16.5 C2,7.38626087 9.38769565,0 18.5,0 C27.6137391,0 35,7.38626087 35,16.5 Z" id="Stroke-3" stroke="#3B7CFF" stroke-width="2" fill="#FFFFFF"></path>
                <path d="M29,16.5006594 C29,22.2983106 24.2996295,27 18.5006594,27 C12.7016894,27 8,22.2983106 8,16.5006594 C8,10.7016894 12.7016894,6 18.5006594,6 C24.2996295,6 29,10.7016894 29,16.5006594 Z" id="Stroke-5" stroke="#000000" fill="#FFFFFF" stroke-dasharray="2"></path>
            </g>
        </g>
    </g>
</svg>