<?xml version="1.0" encoding="UTF-8"?>
<svg width="40px" height="40px" viewBox="0 0 40 40" version="1.1" xmlns="http://www.w3.org/2000/svg" xmlns:xlink="http://www.w3.org/1999/xlink">
    <!-- Generator: Sketch 46.2 (44496) - http://www.bohemiancoding.com/sketch -->
    <title>Top</title>
    <desc>Created with Sketch.</desc>
    <defs></defs>
    <g id="Page-1" stroke="none" stroke-width="1" fill="none" fill-rule="evenodd">
        <g id="My-Profile" transform="translate(-309.000000, -20.000000)">
            <g id="Top" transform="translate(309.000000, 20.000000)">
                <g id="Group-8">
                    <circle id="Notification" fill="#FFFFFF" cx="20" cy="20" r="20"></circle>
                    <circle id="Notification" fill="#3B7CFF" cx="34" cy="34" r="4"></circle>
                    <g id="Icon" transform="translate(10.000000, 10.000000)" stroke="#3B4859" stroke-linecap="round" stroke-linejoin="round">
                        <path d="M16.25,12.0833333 L16.25,6.92833333 C16.25,3.50666667 13.6125,0.5225 10.1925,0.419166667 C6.6525,0.313333333 3.75,3.15083333 3.75,6.66666667 L3.75,12.0833333 C3.75,13.0041667 3.00416667,13.75 2.08333333,13.75 C1.1625,13.75 0.416666667,14.4958333 0.416666667,15.4166667 C0.416666667,16.3375 1.1625,17.0833333 2.08333333,17.0833333 L17.9166667,17.0833333 C18.8375,17.0833333 19.5833333,16.3375 19.5833333,15.4166667 C19.5833333,14.4958333 18.8375,13.75 17.9166667,13.75 C16.9958333,13.75 16.25,13.0041667 16.25,12.0833333 Z" id="Stroke-1"></path>
                        <path d="M6.76033333,3.42741667 C7.06616667,3.12158333 7.41533333,2.85825 7.79783333,2.64741667" id="Stroke-3"></path>
                        <path d="M5.41666667,9.89583333 L5.41666667,8.02083333 L5.41666667,6.66666667 C5.41666667,6.035 5.545,5.4325 5.7775,4.88416667" id="Stroke-5"></path>
                        <path d="M12.0833333,17.0833333 L12.0833333,17.5 C12.0833333,18.65 11.15,19.5833333 10,19.5833333 C8.85,19.5833333 7.91666667,18.65 7.91666667,17.5 L7.91666667,17.0833333" id="Stroke-7"></path>
                    </g>
                </g>
            </g>
        </g>
    </g>
</svg>