<?xml version="1.0" encoding="UTF-8"?>
<svg width="35px" height="38px" viewBox="0 0 35 38" version="1.1" xmlns="http://www.w3.org/2000/svg" xmlns:xlink="http://www.w3.org/1999/xlink">
    <!-- Generator: Sketch 46.2 (44496) - http://www.bohemiancoding.com/sketch -->
    <title>Page 1</title>
    <desc>Created with Sketch.</desc>
    <defs></defs>
    <g id="Page-1" stroke="none" stroke-width="1" fill="none" fill-rule="evenodd">
        <g id="My-Profile" transform="translate(-249.000000, -623.000000)" stroke-width="2">
            <g id="Page-1" transform="translate(250.000000, 623.000000)">
                <path d="M29,0 L29,21" id="Stroke-1" stroke="#3B7CFF"></path>
                <path d="M17,0 L17,5" id="Stroke-3" stroke="#3B7CFF"></path>
                <path d="M29,27 L29,38" id="Stroke-5" stroke="#3B7CFF"></path>
                <path d="M17,11 L17,38" id="Stroke-7" stroke="#3B7CFF"></path>
                <path d="M4,0 L4,24" id="Stroke-9" stroke="#000000" stroke-dasharray="2"></path>
                <path d="M4,32 L4,38" id="Stroke-11" stroke="#000000" stroke-dasharray="2"></path>
                <path d="M33,24 C33,26.2093333 31.2093333,28 29,28 C26.7906667,28 25,26.2093333 25,24 C25,21.7906667 26.7906667,20 29,20 C31.2093333,20 33,21.7906667 33,24 Z" id="Stroke-13" stroke="#3B7CFF"></path>
                <path d="M21,9 C21,11.2093333 19.2093333,13 17,13 C14.7906667,13 13,11.2093333 13,9 C13,6.79066667 14.7906667,5 17,5 C19.2093333,5 21,6.79066667 21,9 Z" id="Stroke-15" stroke="#3B7CFF" fill="#A0BFFF"></path>
                <path d="M8,28 C8,30.2093333 6.20933333,32 4,32 C1.79066667,32 0,30.2093333 0,28 C0,25.7906667 1.79066667,24 4,24 C6.20933333,24 8,25.7906667 8,28 Z" id="Stroke-17" stroke="#3B7CFF"></path>
            </g>
        </g>
    </g>
</svg>