<?xml version="1.0" encoding="UTF-8"?>
<svg width="41px" height="34px" viewBox="0 0 41 34" version="1.1" xmlns="http://www.w3.org/2000/svg" xmlns:xlink="http://www.w3.org/1999/xlink">
    <!-- Generator: Sketch 46.2 (44496) - http://www.bohemiancoding.com/sketch -->
    <title>Page 1</title>
    <desc>Created with Sketch.</desc>
    <defs></defs>
    <g id="Page-1" stroke="none" stroke-width="1" fill="none" fill-rule="evenodd">
        <g id="Scan-Card---1" transform="translate(-37.000000, -484.000000)">
            <g id="Page-1" transform="translate(38.000000, 483.000000)">
                <rect id="Rectangle" fill="#3B7CFF" opacity="0.123811141" x="0" y="5" width="39" height="29"></rect>
                <polygon id="Stroke-1" stroke="#3B7CFF" stroke-linecap="round" stroke-linejoin="round" points="0 34 39 34 39 5 0 5"></polygon>
                <path d="M20,13 L23,13" id="Stroke-6" stroke="#3B4859" stroke-linecap="round" stroke-linejoin="round"></path>
                <path d="M20,16 L31.5,16" id="Stroke-7" stroke="#3B4859" stroke-linecap="round" stroke-linejoin="round"></path>
                <path d="M5,26 L21.507574,26" id="Stroke-7" stroke="#3B4859" stroke-linecap="round" stroke-linejoin="round"></path>
                <path d="M5,29 L27.5055549,29" id="Stroke-7" stroke="#3B4859" stroke-linecap="round" stroke-linejoin="round"></path>
                <path d="M0.5,1.5 L38.5,1.5" id="Line" stroke="#3B7CFF" stroke-linecap="square"></path>
                <path d="M27,26 L33.5,26" id="Stroke-7" stroke="#3B4859" stroke-linecap="round" stroke-linejoin="round"></path>
                <circle id="Oval" stroke="#3B7CFF" stroke-width="0.75" fill="#FFFFFF" cx="8.5" cy="12.5" r="2.5"></circle>
                <path d="M8.38296191,20.9661796 C11.7659238,21.0099246 11.7659238,21.2513202 11.7659238,19.3829619 C11.7659238,17.5146036 10.2513202,16 8.38296191,16 C6.51460364,16 5,17.5146036 5,19.3829619 C5,21.2513202 5,20.9224345 8.38296191,20.9661796 Z" id="Oval" stroke="#3B7CFF" stroke-width="0.75" fill="#FFFFFF"></path>
            </g>
        </g>
    </g>
</svg>