<?xml version="1.0" encoding="UTF-8"?>
<svg width="40px" height="48px" viewBox="0 0 40 48" version="1.1" xmlns="http://www.w3.org/2000/svg" xmlns:xlink="http://www.w3.org/1999/xlink">
    <!-- Generator: Sketch 46.2 (44496) - http://www.bohemiancoding.com/sketch -->
    <title>Page 1</title>
    <desc>Created with Sketch.</desc>
    <defs></defs>
    <g id="Page-1" stroke="none" stroke-width="1" fill="none" fill-rule="evenodd">
        <g id="Profile-Creation" transform="translate(-242.000000, -619.000000)">
            <g id="Page-1" transform="translate(243.000000, 620.000000)">
                <path d="M15,28 C20.3945651,28 25.0765007,24.9488706 27.4142482,20.4781706 C28.4271752,18.5410524 29,16.3374214 29,14 C29,6.2680135 22.7319865,0 15,0 C7.2680135,0 1,6.2680135 1,14 C1,18.7591974 3.37473522,22.9637458 7.00390508,25.4933443 C9.27083276,27.0734349 12.0272109,28 15,28 Z" id="Oval-3" stroke="#3B7CFF" stroke-dasharray="2"></path>
                <path d="M11.2344444,23 C7.57777778,21.53391 5,17.9946943 5,13.8615917 C5,8.41470588 9.47666667,4 15,4 C20.5222222,4 25,8.41470588 25,13.8615917 C25,15.9993656 24.3111111,17.9782584 23.1388889,19.5933679" id="Stroke-7" stroke="#A0BFFF" fill="#A0BFFF" stroke-linecap="round" stroke-linejoin="round"></path>
                <path d="M18,23.4285714 C18,21.5339532 19.5669043,20 21.5005803,20 C23.4330957,20 25,21.5339532 25,23.4285714 L25,32 L18,32 L18,23.4285714 Z" id="Stroke-1" stroke="#000000" fill="#FFFFFF" stroke-linecap="round" stroke-linejoin="round"></path>
                <path d="M25,25.4285714 C25,23.5350803 26.567805,22 28.5,22 C30.4333554,22 32,23.5350803 32,25.4285714 L32,34" id="Stroke-3" stroke="#000000" fill="#FFFFFF" stroke-linecap="round" stroke-linejoin="round"></path>
                <path d="M31.35611,28.1153114 C31.35611,26.2753086 32.8441563,24.7835921 34.678055,24.7835921 C36.5130551,24.7835921 38,26.2753086 38,28.1153114 L38,45.6270996 C38,51.9072042 30.8725775,57.1205454 22.0830811,56.9978785 C19.1146986,56.9562594 16.6342542,56.3002108 14.466619,55.3046379 C11.2107605,53.8107309 8.53536112,51.2807271 6.54285498,48.297294 L1.04776757,40.0643769 C0.35055564,39.2046137 -0.488742137,37.9483738 0.352758521,36.3120856 C1.19315774,34.6768927 3.19667828,34.0339869 4.82681045,34.8784168 L5.38303798,35.3942747 L11.4255414,40.9865688 L11.4255414,14.3317193 C11.4255414,12.4917165 12.9124863,11 14.7474864,11 C16.5813851,11 18.0694314,12.4917165 18.0694314,14.3317193 L18.0694314,30.9914109" id="Stroke-5" stroke="#000000" fill="#FFFFFF" stroke-linecap="round" stroke-linejoin="round"></path>
            </g>
        </g>
    </g>
</svg>