<?xml version="1.0" encoding="UTF-8"?>
<svg width="41px" height="41px" viewBox="0 0 41 41" version="1.1" xmlns="http://www.w3.org/2000/svg" xmlns:xlink="http://www.w3.org/1999/xlink">
    <!-- Generator: Sketch 46.2 (44496) - http://www.bohemiancoding.com/sketch -->
    <title>Page 1</title>
    <desc>Created with Sketch.</desc>
    <defs></defs>
    <g id="Page-1" stroke="none" stroke-width="1" fill="none" fill-rule="evenodd">
        <g id="My-Profile" transform="translate(-251.000000, -472.000000)" fill="#A0BFFF">
            <g id="Page-1" transform="translate(251.000000, 472.000000)">
                <path d="M11,34 C11,36.76125 8.76125,39 6,39 C3.23875,39 1,36.76125 1,34 C1,31.23875 3.23875,29 6,29 C8.76125,29 11,31.23875 11,34 Z" id="Stroke-1" stroke="#3B7CFF" stroke-width="2" fill-opacity="0.639181386"></path>
                <path d="M0,13 L0,20.6363636 C11.228,20.6363636 20.3636364,29.772 20.3636364,41 L28,41 C28,25.5605455 15.4394545,13 0,13 M2.54545455,15.6727273 C14.5523636,16.8690909 24.1296364,26.4463636 25.3285455,38.4545455 L22.7690909,38.4545455 C21.5905455,27.8527273 13.1485455,19.4081818 2.54545455,18.2309091 L2.54545455,15.6727273" id="Fill-3"></path>
                <path d="M0,0 L0,7.6875 C18.368,7.6875 33.3125,22.6307187 33.3125,41 L41,41 C41,18.3923438 22.6076562,0 0,0 M2.5625,2.6470625 C21.7184687,3.9155 37.0857812,19.2815313 38.3529375,38.4375 L35.7840312,38.4375 C34.5258437,20.69475 20.30525,6.4754375 2.5625,5.2146875 L2.5625,2.6470625" id="Fill-5"></path>
            </g>
        </g>
    </g>
</svg>