<?xml version="1.0" encoding="UTF-8"?>
<svg width="57px" height="47px" viewBox="0 0 57 47" version="1.1" xmlns="http://www.w3.org/2000/svg" xmlns:xlink="http://www.w3.org/1999/xlink">
    <!-- Generator: Sketch 46.2 (44496) - http://www.bohemiancoding.com/sketch -->
    <title>Page 1</title>
    <desc>Created with Sketch.</desc>
    <defs></defs>
    <g id="Page-1" stroke="none" stroke-width="1" fill="none" fill-rule="evenodd">
        <g id="My-Profile" transform="translate(-238.000000, -770.000000)">
            <g id="Page-1" transform="translate(239.000000, 771.000000)">
                <path d="M15,22.2727273 C15,23.4363636 14.6175,24.7309091 14.12625,25.4654545 C13.633125,26.2 7.5,35 7.5,35 L0.87375,25.4654545 C0.320625,24.5218182 0,23.4363636 0,22.2727273 C0,18.2563636 3.358125,15 7.5,15 C11.641875,15 15,18.2563636 15,22.2727273 Z" id="Stroke-1" stroke="#3B7CFF" stroke-width="2"></path>
                <path d="M10,22.5 C10,23.8825 8.88,25 7.5,25 C6.12,25 5,23.8825 5,22.5 C5,21.1175 6.12,20 7.5,20 C8.88,20 10,21.1175 10,22.5" id="Fill-3" fill="#3B7CFF"></path>
                <path d="M55,7.27272727 C55,8.43636364 54.6175,9.73090909 54.12625,10.4654545 C53.633125,11.2 47.5,20 47.5,20 L40.87375,10.4654545 C40.320625,9.52181818 40,8.43636364 40,7.27272727 C40,3.25636364 43.358125,0 47.5,0 C51.641875,0 55,3.25636364 55,7.27272727 Z" id="Stroke-5" stroke="#3B7CFF" stroke-width="2" fill-opacity="0.50854846" fill="#A0BFFF"></path>
                <path d="M50,7.5 C50,8.8825 48.88,10 47.5,10 C46.12,10 45,8.8825 45,7.5 C45,6.1175 46.12,5 47.5,5 C48.88,5 50,6.1175 50,7.5" id="Fill-7" fill="#3B7CFF"></path>
                <path d="M13,45 L51,45" id="Stroke-9" stroke="#000000" stroke-width="2" stroke-dasharray="2"></path>
                <path d="M52,37 C53.656,37 55,38.792 55,41 C55,43.208 53.656,45 52,45" id="Stroke-11" stroke="#3B7CFF" stroke-width="2"></path>
                <path d="M24,37 L51,37" id="Stroke-13" stroke="#3B7CFF" stroke-width="2"></path>
                <path d="M23,37 C21.344,37 20,35.208 20,33 C20,30.792 21.344,29 23,29" id="Stroke-15" stroke="#3B7CFF" stroke-width="2"></path>
                <path d="M42,29 L24,29" id="Stroke-17" stroke="#3B7CFF" stroke-width="2"></path>
                <path d="M49,29.5 C49,30.3295 48.328,31 47.5,31 C46.672,31 46,30.3295 46,29.5 C46,28.6705 46.672,28 47.5,28 C48.328,28 49,28.6705 49,29.5" id="Fill-19" fill="#3B7CFF"></path>
                <path d="M9,44.5 C9,45.3295 8.328,46 7.5,46 C6.672,46 6,45.3295 6,44.5 C6,43.6705 6.672,43 7.5,43 C8.328,43 9,43.6705 9,44.5" id="Fill-21" fill="#3B7CFF"></path>
            </g>
        </g>
    </g>
</svg>